<?xml version="1.0" encoding="UTF-8" standalone="no"?>
<svg
   width="16"
   height="16"
   fill="currentColor"
   class="bi bi-bug-fill"
   viewBox="0 0 16 16"
   version="1.1"
   id="svg22"
   sodipodi:docname="favicon.svg"
   inkscape:version="1.2 (56b05e47e7, 2022-06-09, custom)"
   xmlns:inkscape="http://www.inkscape.org/namespaces/inkscape"
   xmlns:sodipodi="http://sodipodi.sourceforge.net/DTD/sodipodi-0.dtd"
   xmlns="http://www.w3.org/2000/svg"
   xmlns:svg="http://www.w3.org/2000/svg">
  <defs
     id="defs26" />
  <sodipodi:namedview
     id="namedview24"
     pagecolor="#ffffff"
     bordercolor="#000000"
     borderopacity="0.25"
     inkscape:showpageshadow="2"
     inkscape:pageopacity="0.0"
     inkscape:pagecheckerboard="0"
     inkscape:deskcolor="#d1d1d1"
     showgrid="false"
     inkscape:zoom="50"
     inkscape:cx="3.21"
     inkscape:cy="6.41"
     inkscape:window-width="1920"
     inkscape:window-height="966"
     inkscape:window-x="0"
     inkscape:window-y="27"
     inkscape:window-maximized="1"
     inkscape:current-layer="svg22" />
  <path
     d="M4.978.855a.5.5 0 1 0-.956.29l.41 1.352A4.985 4.985 0 0 0 3 6h10a4.985 4.985 0 0 0-1.432-3.503l.41-1.352a.5.5 0 1 0-.956-.29l-.291.956A4.978 4.978 0 0 0 8 1a4.979 4.979 0 0 0-2.731.811l-.29-.956z"
     id="path18"
     style="fill:#e46c1c;fill-opacity:1" />
  <path
     d="M13 6v1H8.5v8.975A5 5 0 0 0 13 11h.5a.5.5 0 0 1 .5.5v.5a.5.5 0 1 0 1 0v-.5a1.5 1.5 0 0 0-1.5-1.5H13V9h1.5a.5.5 0 0 0 0-1H13V7h.5A1.5 1.5 0 0 0 15 5.5V5a.5.5 0 0 0-1 0v.5a.5.5 0 0 1-.5.5H13zm-5.5 9.975V7H3V6h-.5a.5.5 0 0 1-.5-.5V5a.5.5 0 0 0-1 0v.5A1.5 1.5 0 0 0 2.5 7H3v1H1.5a.5.5 0 0 0 0 1H3v1h-.5A1.5 1.5 0 0 0 1 11.5v.5a.5.5 0 1 0 1 0v-.5a.5.5 0 0 1 .5-.5H3a5 5 0 0 0 4.5 4.975z"
     id="path20"
     style="fill:#e46c1c;fill-opacity:1" />
  <path
     style="fill:#e46c1c;stroke-width:0.02;fill-opacity:1"
     d="M 3.0100167,5.895 C 3.0100259,5.83725 3.0192818,5.691 3.0305854,5.57 3.132995,4.473752 3.5416308,3.5279724 4.28,2.6782546 4.368,2.5769838 4.4387452,2.4886976 4.4372115,2.482063 4.4356778,2.4754284 4.3379723,2.1510052 4.2200882,1.7611227 3.9760106,0.95387638 3.9698956,0.90810078 4.0818824,0.72654858 4.1485884,0.6184052 4.3027368,0.51290346 4.4224149,0.49348237 4.5923207,0.46591047 4.7980122,0.56155255 4.8984883,0.71484612 4.92596,0.75675888 5.0158428,1.0155767 5.101702,1.3 c 0.084675,0.2805 0.156623,0.5131915 0.1598848,0.5170921 0.00326,0.0039 0.080739,-0.037852 0.172172,-0.092783 1.5756714,-0.94663874 3.556811,-0.94663874 5.1324822,0 0.09143,0.054931 0.168875,0.096684 0.172094,0.092783 0.0032,-0.0039 0.0753,-0.2365921 0.160177,-0.5170921 0.08488,-0.2805 0.17636,-0.54381924 0.203292,-0.58515388 0.09975,-0.15309037 0.305782,-0.24895078 0.475781,-0.22136375 0.119678,0.0194211 0.273827,0.12492283 0.340533,0.23306621 0.112012,0.18159356 0.105896,0.22732382 -0.138372,1.03457412 -0.117976,0.3898825 -0.217648,0.7143099 -0.221495,0.7209499 -0.0038,0.00664 0.06138,0.08764 0.144953,0.18 0.63107,0.6974422 1.058492,1.579509 1.215264,2.5079274 0.03553,0.2104298 0.07149,0.5749652 0.07151,0.725 L 12.99,6 H 8 3.01 Z"
     id="path201" />
  <path
     style="fill:#e46c1c;stroke-width:0.02;fill-opacity:1"
     d="M 7.34,15.946349 C 7.307,15.942137 7.1651516,15.916109 7.0247814,15.888508 5.5917656,15.606736 4.349757,14.696593 3.6307218,13.401344 3.2721784,12.755474 3.0601086,12.009609 3.0176146,11.245 L 3.0039984,11 H 2.6863568 C 2.3359837,11 2.2868472,11.01131 2.1623672,11.120604 2.0174109,11.247878 2.0024147,11.301599 1.9894634,11.74 c -0.00659,0.223008 -0.021403,0.413102 -0.0346,0.443954 -0.03805,0.08896 -0.1691712,0.219928 -0.2609773,0.260679 C 1.5098475,12.526324 1.2838943,12.47735 1.1478273,12.326276 1.016338,12.180285 1.0041688,12.118068 1.0147957,11.646126 1.0229007,11.28618 1.0302295,11.211099 1.0690794,11.09 1.1533327,10.827374 1.2632745,10.645192 1.449266,10.46 1.7972592,10.113503 2.1210095,10.002141 2.785,10.000542 L 3.01,10 V 9.5012326 9.0024654 L 2.205,8.9962326 C 1.4809689,8.9906268 1.3919534,8.9863776 1.32,8.9539864 1.1467864,8.8760108 1.0103908,8.676011 1.0103908,8.5 1.0103908,8.323989 1.1467864,8.1239892 1.32,8.0460136 1.3919534,8.0136223 1.4809689,8.0093731 2.205,8.0037673 L 3.01,7.9975347 V 7.4987673 7 h 2.24 2.24 v 4.48 4.48 L 7.445,15.957 C 7.42025,15.9554 7.373,15.9506 7.34,15.94635 Z"
     id="path272" />
  <path
     style="fill:#e46c1c;stroke-width:0.02;fill-opacity:1"
     d="M 8.51,11.481439 V 7 h 2.24 2.24 v 0.4987673 0.4987674 l 0.805,0.00641 c 0.918513,0.00732 0.907915,0.00556 1.061379,0.1762475 0.178775,0.198841 0.178775,0.4407654 0,0.6396064 -0.153464,0.1706928 -0.142866,0.168933 -1.061379,0.1762522 l -0.805,0.00641 V 9.5012326 10 l 0.225,3.46e-4 c 0.658811,10e-4 0.989352,0.114761 1.335734,0.459653 0.128094,0.127544 0.19128,0.20996 0.253003,0.33 0.15046,0.292618 0.170765,0.387292 0.181447,0.846 0.01114,0.478216 -6.82e-4,0.5413 -0.127924,0.682824 -0.234334,0.260635 -0.623824,0.207238 -0.793785,-0.108824 -0.03849,-0.07157 -0.04415,-0.12107 -0.05374,-0.47 -0.01205,-0.438541 -0.02688,-0.491885 -0.172102,-0.619395 C 13.713153,11.01131 13.664016,11 13.313643,11 h -0.317641 l -0.01362,0.245 c -0.127516,2.294448 -1.767301,4.196641 -4.0024211,4.642914 -0.1319802,0.02635 -0.2917139,0.054 -0.3549639,0.06144 l -0.115,0.01353 z"
     id="path274" />
  <path
     style="fill:#e46c1c;stroke-width:0.02;fill-opacity:1"
     d="M 2.35,6.9786636 C 2.154407,6.9577796 1.9125139,6.8799096 1.75,6.7855118 1.5523473,6.6707032 1.2963353,6.4046243 1.1962625,6.21 1.0447831,5.9153988 1.0253783,5.8238507 1.0147957,5.3538742 1.0066123,4.9904494 1.0098727,4.9261037 1.0405401,4.8458023 1.1753724,4.492749 1.6087428,4.4034755 1.8558925,4.6778413 c 0.041741,0.046337 0.086278,0.1085293 0.098971,0.1382042 0.013197,0.030852 0.028012,0.2209462 0.0346,0.4439545 0.012951,0.4384011 0.027947,0.4921222 0.1729038,0.6193955 C 2.2864033,5.9883007 2.3365544,6 2.6793576,6 H 2.99 V 6.5 7 L 2.745,6.9973396 C 2.61025,6.9958776 2.4325,6.9874722 2.35,6.9786636 Z"
     id="path276" />
  <path
     style="fill:#e46c1c;stroke-width:0.02;fill-opacity:1"
     d="M 13.01,6.5 V 6 h 0.310642 C 13.663446,6 13.713597,5.988301 13.837633,5.8793955 13.982859,5.7518852 13.997681,5.6985415 14.009735,5.26 c 0.0096,-0.3489298 0.01525,-0.3984247 0.05374,-0.47 0.09317,-0.173252 0.25208,-0.2728571 0.435327,-0.2728571 0.145223,0 0.256941,0.051123 0.358458,0.1640335 0.127242,0.1415244 0.139061,0.2046083 0.127924,0.6828244 C 14.974502,5.8227079 14.954197,5.9173828 14.803737,6.21 14.742014,6.3300408 14.678828,6.4124567 14.550734,6.54 14.206125,6.8831276 13.873054,6.9986088 13.225,6.9996534 L 13.01,7 Z"
     id="path278" />
  <path
     style="fill:#00ff00;stroke-width:0.02"
     d=""
     id="path280" />
  <path
     style="fill:#e46c1c;stroke-width:0.02;fill-opacity:1"
     d="M 3.0178932,5.875 C 3.0239854,5.80625 3.0344446,5.678 3.0411358,5.59 3.0606633,5.3331802 3.1419773,4.8893242 3.2172289,4.6287874 3.418289,3.932675 3.743221,3.3370404 4.2585151,2.72 4.3365976,2.6265 4.411685,2.535505 4.425376,2.5177888 4.4459369,2.491183 4.42582,2.4051628 4.3097779,2.0234882 3.9991025,1.0016451 3.9821245,0.90098404 4.093037,0.73845002 4.1277073,0.6876432 4.2009761,0.61545734 4.2558564,0.57803699 c 0.088719,-0.0604936 0.1144376,-0.068027 0.231963,-0.0679471 0.1077604,7.34e-5 0.1493423,0.010162 0.2250727,0.0546077 0.051091,0.0299848 0.1154848,0.0813678 0.1430981,0.1141844 C 4.9040501,0.735998 5.0104644,1.033615 5.1799768,1.585 5.219712,1.71425 5.2611968,1.82 5.272165,1.82 5.2831334,1.82 5.3883832,1.7644021 5.5060536,1.6964492 7.054915,0.80200506 8.9433018,0.80233364 10.496953,1.6973176 10.614087,1.7647929 10.718441,1.82 10.728851,1.82 c 0.01041,0 0.05169,-0.10575 0.09173,-0.235 0.185942,-0.600214 0.274052,-0.8474347 0.322582,-0.90510932 0.120875,-0.14365227 0.359911,-0.21683551 0.506984,-0.15521841 0.08983,0.0376352 0.190761,0.12312038 0.262832,0.22261143 0.105505,0.14564462 0.08118,0.2840337 -0.224681,1.2781487 -0.07707,0.2504878 -0.133394,0.4664878 -0.12517,0.48 0.0082,0.013512 0.108968,0.1363656 0.223875,0.2730076 0.657662,0.7820556 1.063106,1.7261196 1.160231,2.70156 0.0115,0.1155 0.0262,0.27975 0.03267,0.365 L 12.991668,6 H 7.9992422 3.0068162 Z"
     id="path282" />
  <path
     style="fill:#e46c1c;stroke-width:0.02;fill-opacity:1"
     d="M 3.0100486,5.985 C 3.0100753,5.97675 3.0192878,5.8485 3.0305209,5.7 3.0822537,5.0160994 3.2312486,4.4453202 3.5082197,3.87 3.716511,3.4373404 3.9582378,3.0702882 4.2964268,2.6731398 4.3756537,2.5801006 4.43,2.49786 4.43,2.4710076 4.43,2.446108 4.3706669,2.2286951 4.2981488,1.9878678 3.9977415,0.99023858 3.9829019,0.89984476 4.093037,0.73845002 4.1277073,0.6876432 4.2009761,0.61545734 4.2558564,0.57803699 c 0.088719,-0.0604936 0.1144376,-0.068027 0.231963,-0.0679471 0.1077604,7.34e-5 0.1493423,0.010162 0.2250727,0.0546077 0.051091,0.0299848 0.1158402,0.0817901 0.1438879,0.11512292 C 4.904512,0.73654684 5.0143052,1.0447152 5.1899626,1.615 c 0.034729,0.11275 0.070732,0.205 0.080007,0.205 0.00927,0 0.105326,-0.051122 0.213447,-0.1136049 C 7.062385,0.7939152 8.9466496,0.79819086 10.536577,1.7178614 10.633695,1.7740376 10.720746,1.82 10.730024,1.82 c 0.0093,0 0.04528,-0.09225 0.08001,-0.205 0.175658,-0.5702848 0.285451,-0.87845316 0.333183,-0.93517941 0.120818,-0.14358354 0.359885,-0.21675183 0.506925,-0.15514832 0.08983,0.0376352 0.190761,0.12312038 0.262832,0.22261143 0.105371,0.1454604 0.08501,0.2623826 -0.221101,1.2694976 C 11.613844,2.2735109 11.55,2.4873058 11.55,2.491881 c 0,0.00458 0.05657,0.073524 0.125715,0.1532188 0.546397,0.629782 0.898165,1.2592492 1.104898,1.9771446 C 12.888845,4.998087 12.938974,5.3056532 12.979905,5.845 L 12.991668,6 H 8.000834 C 5.2558754,6 3.0100219,5.99325 3.0100486,5.985 Z"
     id="path284" />
  <path
     style="fill:#e46c1c;stroke-width:0.02;fill-opacity:1"
     d="M 3.0207326,5.815 C 3.0990532,4.6244034 3.4698994,3.6812602 4.2192638,2.7668726 4.3350463,2.6255926 4.4298276,2.4931202 4.4298887,2.4724893 c 6.2e-5,-0.020631 -0.071255,-0.2771309 -0.1584799,-0.57 C 3.9944673,0.9726248 3.9832391,0.89935064 4.093037,0.73845002 4.1277073,0.6876432 4.2009761,0.61545734 4.2558564,0.57803699 c 0.088719,-0.0604936 0.1144376,-0.068027 0.231963,-0.0679471 0.1077604,7.34e-5 0.1493423,0.010162 0.2250727,0.0546077 0.1619483,0.0950466 0.1832421,0.13604987 0.3695873,0.71167721 0.095011,0.2934938 0.1756908,0.536994 0.1792874,0.5411116 0.0036,0.00412 0.1236552,-0.057393 0.2667966,-0.1366906 C 5.96485,1.439102 6.3360608,1.2893281 6.767658,1.1808533 8.0379876,0.86157706 9.2986222,1.0309319 10.465847,1.6776716 c 0.146216,0.081016 0.268789,0.1439324 0.272386,0.1398149 0.0036,-0.00412 0.08428,-0.2476178 0.179288,-0.5411116 0.119633,-0.3695514 0.188728,-0.5526166 0.224721,-0.59539224 0.11711,-0.13917657 0.34117,-0.21266152 0.494313,-0.1621197 0.08427,0.0278126 0.262271,0.1815151 0.304276,0.26274468 0.07499,0.14501612 0.04982,0.25581116 -0.381464,1.67900336 -0.0056,0.018319 0.07156,0.1267412 0.192015,0.27 0.546929,0.650444 0.934951,1.4184414 1.106164,2.189389 0.05143,0.2315634 0.09853,0.5812532 0.121905,0.905 L 12.992087,6 H 8.0003248 3.0085628 Z"
     id="path286" />
  <path
     style="fill:#e46c1c;stroke-width:0.02;fill-opacity:1"
     d="M 3.0189615,5.815 C 3.1044256,4.6179292 3.4656707,3.6925434 4.1998473,2.789976 4.3072095,2.6579892 4.4040019,2.5305344 4.4149417,2.5067432 4.4352008,2.4626844 4.4342171,2.4589523 4.1364031,1.45 4.0788203,1.2549176 4.044064,1.094044 4.0370213,0.99 4.02662,0.83633704 4.0286061,0.82643542 4.0871664,0.74 4.1207028,0.6905 4.1948286,0.6185 4.2518903,0.58 4.3445433,0.5174862 4.3697751,0.5100096 4.4878194,0.5100899 c 0.1077604,7.34e-5 0.1493423,0.010162 0.2250727,0.0546077 0.1618811,0.0950071 0.1832505,0.13612879 0.3698317,0.711679 0.095144,0.2934928 0.1755088,0.536678 0.1785878,0.5404116 0.00308,0.00373 0.1313938,-0.062081 0.2851438,-0.1462545 0.7477712,-0.4093826 1.4537158,-0.6087772 2.2764186,-0.6429763 0.9113368,-0.0378836 1.8143746,0.1863153 2.668904,0.6626136 0.132334,0.073761 0.243394,0.1308969 0.246801,0.1269696 0.0034,-0.00393 0.08393,-0.247272 0.178942,-0.5407658 0.119633,-0.36955137 0.188728,-0.55261657 0.224721,-0.59539221 0.11711,-0.13917657 0.34117,-0.21266152 0.494313,-0.1621197 0.08427,0.0278126 0.262271,0.1815151 0.304276,0.26274468 0.06777,0.1310483 0.03351,0.30940573 -0.220054,1.14564733 C 11.63785,2.2007453 11.57,2.4440303 11.57,2.4678884 c 0,0.025518 0.07886,0.1378148 0.19154,0.272745 0.622698,0.7456746 1.021207,1.6078748 1.156802,2.502819 0.02728,0.180031 0.07085,0.6200856 0.07145,0.7215476 C 12.989994,5.9982404 12.739025,6 7.9978768,6 H 3.0057535 Z"
     id="path288" />
  <path
     style="fill:#e46c1c;stroke-width:0.02;fill-opacity:1"
     d="M 3.0191413,5.805 C 3.0791997,4.962337 3.263883,4.3022294 3.6276575,3.63 3.7755898,3.3566316 3.9351425,3.1220842 4.2032152,2.7839128 4.3279468,2.6265648 4.43,2.4865482 4.43,2.4727647 4.43,2.4589813 4.3437714,2.1557205 4.2383809,1.7988519 3.9794595,0.92210428 3.9739643,0.83590078 4.1650316,0.64822736 4.318395,0.49758814 4.4981465,0.46227351 4.6801456,0.5470262 4.8623126,0.6318571 4.8897225,0.68125644 5.081319,1.2700375 5.176164,1.5614979 5.2598566,1.803731 5.2673032,1.8083333 c 0.00745,0.0046 0.125337,-0.053686 0.2619786,-0.1295295 C 6.1234648,1.3489999 6.7235852,1.1486199 7.39,1.0575105 c 0.2457104,-0.033592 0.9742896,-0.033592 1.22,0 0.6652186,0.090946 1.2590566,0.2889908 1.86,0.6203099 0.1375,0.075808 0.255903,0.1343031 0.263118,0.129989 0.0072,-0.00431 0.09072,-0.2463115 0.185563,-0.5377719 0.186428,-0.5728976 0.217334,-0.63148005 0.375793,-0.71232009 0.101761,-0.0519143 0.251109,-0.0688777 0.342081,-0.0388544 0.03963,0.0130803 0.117747,0.0648576 0.173584,0.11506056 0.226992,0.20408512 0.224402,0.24449862 -0.08128,1.26796153 -0.08737,0.2925368 -0.158768,0.5490368 -0.158656,0.5700001 1.2e-4,0.020963 0.06438,0.1146148 0.142823,0.2081148 0.34666,0.4132146 0.540454,0.7073587 0.757666,1.15 0.302954,0.617366 0.454897,1.2083534 0.510346,1.985 L 12.994246,6 H 7.9997448 3.0052432 Z"
     id="path290" />
  <path
     style="fill:#e46c1c;stroke-width:0.02;fill-opacity:1"
     d="M 3.0185477,5.795 C 3.096981,4.6214056 3.453082,3.7214058 4.2184551,2.762388 4.4140983,2.5172458 4.4308975,2.4895378 4.4185327,2.4323881 4.4111086,2.3980746 4.3336856,2.127 4.2464814,1.83 4.0520682,1.1678677 4.0306693,1.0795752 4.0302956,0.93800962 4.0300592,0.8484364 4.0410094,0.80986194 4.085,0.74530158 4.2390742,0.51918333 4.4613411,0.44513411 4.6801456,0.5470262 4.8729198,0.63679664 4.898215,0.68597994 5.1419766,1.445 5.2093264,1.6547127 5.2662112,1.8 5.280971,1.8 5.2947128,1.8 5.421616,1.7369331 5.562978,1.6598513 6.1494628,1.3400533 6.7359944,1.1467109 7.39,1.0575975 7.634538,1.0242773 8.366902,1.0232842 8.6,1.0559567 9.2712764,1.1500471 9.819936,1.3292001 10.419947,1.6502212 10.573918,1.7325995 10.709821,1.8 10.721954,1.8 c 0.01213,0 0.07354,-0.15975 0.136458,-0.355 0.239914,-0.74450496 0.267928,-0.80150712 0.436062,-0.88728259 0.101761,-0.0519143 0.251109,-0.0688777 0.342081,-0.0388544 0.03963,0.0130803 0.117747,0.0648576 0.173584,0.11506056 0.225528,0.20276882 0.222989,0.24707096 -0.07084,1.23607653 -0.0817,0.275 -0.153883,0.527 -0.160402,0.56 -0.01326,0.067125 -0.004,0.081416 0.271044,0.42 0.458909,0.564843 0.806581,1.2564606 0.979859,1.9492152 0.07851,0.3138674 0.160109,0.8975543 0.160184,1.1457848 L 12.99,6 H 7.9974236 3.0048472 Z"
     id="path292" />
  <path
     style="fill:#e46c1c;stroke-width:0.02;fill-opacity:1"
     d="M 3.0100683,5.935 C 3.0102291,5.782095 3.0549914,5.3888746 3.102844,5.12 3.2559407,4.259779 3.5890776,3.5542926 4.217257,2.76 4.4090334,2.517511 4.4294663,2.4839248 4.4177909,2.4303767 4.4106409,2.3975839 4.3427657,2.1606873 4.2669571,1.9039398 4.0047549,1.0159165 3.986999,0.90689004 4.079009,0.74988682 4.1648378,0.60343093 4.3371613,0.49983676 4.4943576,0.50019538 c 0.1036761,2.3652e-4 0.2651735,0.0729273 0.3405672,0.15329097 0.06754,0.0719917 0.1119168,0.18384917 0.2821682,0.71123385 0.073368,0.2272722 0.142116,0.4186106 0.1527722,0.4251965 0.010656,0.00659 0.165796,-0.064147 0.344755,-0.1571847 C 5.9871948,1.4390372 6.1868926,1.353921 6.504564,1.2534157 7.598162,0.90742176 8.771211,0.95215706 9.8540356,1.3811509 9.967316,1.4260304 10.206042,1.5386312 10.384538,1.631375 10.563034,1.7241187 10.716607,1.8 10.725812,1.8 c 0.0092,0 0.07426,-0.17775 0.144572,-0.395 C 11.105367,0.67893342 11.126147,0.63931003 11.32,0.54766582 11.502148,0.46155513 11.655634,0.49062833 11.820328,0.64243746 12.03679,0.8419653 12.033175,0.88913174 11.721071,1.9374045 11.637982,2.216477 11.57,2.4566804 11.57,2.4711897 c 0,0.014509 0.09954,0.1506773 0.221206,0.3025955 0.311604,0.3890928 0.47673,0.6446864 0.669446,1.0362148 0.313434,0.6367862 0.470776,1.2364862 0.5208,1.985 L 12.995153,6 H 8.0025764 3.01 Z"
     id="path294" />
  <path
     style="fill:#e46c1c;stroke-width:0.02;fill-opacity:1"
     d="M 3.01,5.9234736 C 3.01,5.7929092 3.0505507,5.4209568 3.0914836,5.1760638 3.2378821,4.3001904 3.5732977,3.57438 4.194284,2.7896988 4.2986159,2.6578644 4.3941629,2.53066 4.4066107,2.5070222 4.4252003,2.4717211 4.4111656,2.4020581 4.3280391,2.1170221 4.2723769,1.92616 4.1862922,1.6305 4.1367397,1.46 4.0818512,1.27114 4.0423145,1.0900016 4.0355645,0.99646266 4.0254676,0.85654442 4.0290766,0.83508996 4.0762514,0.75459232 4.207676,0.53033314 4.4602353,0.44377192 4.68,0.54766582 4.8739746,0.63936745 4.8995935,0.68735368 5.1196624,1.3711914 5.1916662,1.5949343 5.2583418,1.7827948 5.2678302,1.788659 5.2773188,1.7945233 5.4684388,1.706623 5.6925412,1.5933251 6.1691718,1.352358 6.5590514,1.213832 7.02,1.1216729 8.1553174,0.89468482 9.2324682,1.0491619 10.307459,1.5931362 10.531561,1.706538 10.722681,1.7945233 10.73217,1.788659 10.74167,1.782799 10.80833,1.5949343 10.880338,1.3711914 11.100407,0.68735368 11.126025,0.63936745 11.32,0.54766582 c 0.216381,-0.10229426 0.444687,-0.0246302 0.599884,0.20406604 0.09645,0.14212178 0.07507,0.26745204 -0.209123,1.22599414 -0.120032,0.4048525 -0.140716,0.4949092 -0.121732,0.53 0.01258,0.023251 0.113298,0.154774 0.223822,0.292274 0.288284,0.358648 0.457846,0.6226746 0.648637,1.01 0.31293,0.6352798 0.468059,1.2272974 0.52014,1.985 L 12.995718,6 H 8.002859 3.01 Z"
     id="path296" />
  <path
     style="fill:#e46c1c;stroke-width:0.02;fill-opacity:1"
     d="M 3.0178996,5.785 C 3.0851017,4.7373226 3.421078,3.808155 4.0171056,3.0216214 4.0969705,2.9162296 4.2220144,2.7515886 4.294981,2.6557526 L 4.4276477,2.4815054 4.3714281,2.2757527 C 4.3405073,2.1625887 4.2546538,1.863 4.1806425,1.61 4.0828687,1.2757704 4.0432691,1.1062538 4.0358086,0.99 4.0257957,0.8339741 4.0272105,0.82753066 4.0927703,0.73058282 4.2680553,0.47137673 4.584692,0.4288271 4.8117558,0.63396558 c 0.087216,0.0787949 0.128216,0.17723724 0.3168486,0.76077322 0.068404,0.2116063 0.1306552,0.3886232 0.138337,0.3933709 0.00768,0.00475 0.1982628,-0.083152 0.423513,-0.1953323 C 6.2661332,1.3060741 6.7315026,1.1548629 7.31,1.0665424 c 0.3236652,-0.049415 1.0609356,-0.049617 1.38,-3.79e-4 0.5827378,0.089928 1.045507,0.2404257 1.619364,0.5266343 0.225151,0.1122928 0.415713,0.2002452 0.423471,0.1954499 0.0078,-0.0048 0.07365,-0.1923011 0.146416,-0.4166797 C 11.102063,0.68454582 11.126301,0.6392373 11.32,0.54766582 11.537722,0.44473748 11.760656,0.51878736 11.915,0.74530158 12.01618,0.8937923 11.99694,1.0158153 11.731359,1.91 c -0.07514,0.253 -0.142351,0.487 -0.149349,0.52 -0.01144,0.053963 0.0096,0.088173 0.209066,0.34 0.312207,0.3941456 0.477324,0.6493756 0.668038,1.032621 0.188866,0.3795324 0.343171,0.821077 0.419864,1.2014452 C 12.927553,5.2449798 12.99,5.7598464 12.99,5.9194312 V 6 H 7.9970544 3.0041087 Z"
     id="path298" />
  <path
     style="fill:#e46c1c;stroke-width:0.02;fill-opacity:1"
     d="M 3.0179288,5.785 C 3.0718484,4.9461712 3.2919677,4.1974874 3.6822966,3.5253094 3.8163483,3.2944614 4.0275404,2.9938278 4.2757429,2.6805336 4.3618125,2.5718922 4.41,2.4928088 4.41,2.4601966 4.41,2.4322177 4.3281139,2.1259775 4.2280309,1.7796629 4.090565,1.3039933 4.0435524,1.1108697 4.0358012,0.99 4.0257958,0.833979 4.0272126,0.82752762 4.0927703,0.73058282 4.2657393,0.47480167 4.5797942,0.42933965 4.8053997,0.6274239 4.8952347,0.7063001 4.9348861,0.79681604 5.0960374,1.2908901 5.1676344,1.5104005 5.2357352,1.7144653 5.2473716,1.7443674 L 5.268529,1.7987348 5.686251,1.593243 C 6.274063,1.304078 6.735069,1.1545048 7.31,1.0664181 c 0.3220338,-0.04934 1.0795388,-0.049104 1.3942182,4.342e-4 0.5646422,0.088888 1.0286758,0.2406482 1.6095308,0.5263908 l 0.417722,0.2054918 0.02145,-0.054367 c 0.0118,-0.029902 0.07916,-0.231832 0.149703,-0.4487331 0.197453,-0.60713642 0.225394,-0.65720776 0.417378,-0.74796848 0.125405,-0.0592855 0.263319,-0.0620903 0.370266,-0.00753 0.0947,0.0483143 0.206913,0.15705703 0.251968,0.24418423 0.05139,0.0993776 0.02642,0.31306065 -0.07897,0.67568025 -0.04955,0.1705 -0.135637,0.46616 -0.191299,0.6570221 -0.08278,0.2838461 -0.09712,0.3548463 -0.07879,0.3900002 0.01233,0.023638 0.108094,0.1498638 0.212814,0.2805022 0.278799,0.3478014 0.467246,0.6404292 0.652344,1.0129838 0.310825,0.625609 0.476823,1.2545888 0.523741,1.9844916 L 12.995891,6 H 8 3.0041087 Z"
     id="path300" />
  <path
     style="fill:#e46c1c;stroke-width:0.02;fill-opacity:1"
     d="M 3.0169597,5.7869044 C 3.0476583,5.2851756 3.1680775,4.6973336 3.3256487,4.28 3.5423868,3.70596 3.7769963,3.3140296 4.3073527,2.64 4.3671597,2.563991 4.4097167,2.4895318 4.4098212,2.4607165 c 9.8e-5,-0.027106 -0.081717,-0.3331059 -0.1818118,-0.68 C 4.0906115,1.3045428 4.04351,1.1107956 4.0357798,0.99 c -0.00998,-0.15600672 -0.00856,-0.16248126 0.05699,-0.25941718 0.1721664,-0.25459433 0.4870621,-0.3012097 0.710354,-0.10515679 0.0945,0.0829724 0.1073747,0.11204661 0.2881965,0.65083187 0.087446,0.2605581 0.16304,0.4847326 0.167987,0.4981653 0.00594,0.01614 0.1507096,-0.045291 0.4268296,-0.1811244 C 6.267294,1.3074079 6.731869,1.1554907 7.2957818,1.066941 7.5744702,1.0231793 8.3655228,1.0168418 8.64,1.0561717 c 0.5686432,0.081481 1.081795,0.2458687 1.668575,0.5345259 0.231306,0.1137877 0.424039,0.2006802 0.428294,0.1930945 C 10.741125,1.7762065 10.810215,1.572 10.890402,1.33 11.108182,0.67275991 11.126692,0.63905226 11.32,0.54766582 c 0.219841,-0.10393009 0.471125,-0.0193783 0.600991,0.202221 0.09219,0.1573087 0.07678,0.25632048 -0.171689,1.10288258 C 11.661686,2.1512926 11.59,2.4214342 11.59,2.453084 c 0,0.042834 0.05393,0.125995 0.210955,0.3252914 0.245896,0.312094 0.426624,0.5792842 0.562513,0.8316246 0.373356,0.6933052 0.567162,1.3747256 0.618603,2.175 L 12.995891,6 H 7.9999064 3.0039213 Z"
     id="path302" />
</svg>
